<svg version="1.1" xmlns="http://www.w3.org/2000/svg" x="0px" y="0px" viewBox="0 0 256 256" enable-background="new 0 0 256 256" xml:space="preserve">
    <g>
        <path fill="#FFFFFF" d="M194.9,21.8c-6.5,6.5-12,11.8-12.2,11.8c-0.2,0-3.3-1.4-7-3.2c-23.6-11.5-49.4-14.2-74.9-7.7c-30.3,7.6-56.1,28.5-70.3,56.8c-6.3,12.6-10.4,28.2-11,42.2l-0.3,6.2h9.8H39v-3.8c0-7.5,2.2-18.7,5.4-27.2c11-29.7,37.1-51.4,68.4-56.9c9.6-1.7,23.4-1.4,33.6,0.7c7,1.4,20.6,6.2,21.4,7.5c0.2,0.3-4.2,4.9-9.6,10.4l-9.9,9.9h29.4H207V39.2c0-16.1,0-29.2-0.1-29.2C206.8,10,201.4,15.3,194.9,21.8z"/><path fill="#FFFFFF" d="M109.7,66.8c-5.4,1.3-6.1,1.9-23.5,19.3c-18.1,18.1-18.5,18.6-19.5,24.8c-0.7,3.9,0,7.5,1.9,11.8c1.3,2.8,3.6,5.2,31.5,33c33,32.9,32.3,32.3,39,33.4c2.6,0.4,3.9,0.4,6.2,0c6.1-1.2,6.7-1.6,24.6-19.4c17.9-17.9,18.2-18.3,19.4-24.6c0.5-2.3,0.5-3.7,0-6.2c-1.1-6.7-0.6-6-33.4-39c-27.7-27.7-30.2-30.1-33-31.4C118.1,66.3,114.1,65.7,109.7,66.8z M156.3,156.1l-14.1,14.1l-28.2-28.2l-28.2-28.2l14-14l14.1-14.1l28.2,28.2l28.2,28.2L156.3,156.1z"/><path fill="#FFFFFF" d="M217.2,131.5c0,4.9-1.1,12.5-2.5,18.2c-9.1,36-39.6,62.6-76.6,66.8c-9.7,1.1-22,0.3-31.4-2.1c-7.3-1.9-18.5-6.1-18.5-7.1c0-0.2,4.5-4.8,9.8-10.2l9.9-9.9H78.5H49.2v29.3V246l12.1-12.1l12-12l6.9,3.3c3.8,1.8,8.4,3.9,10.1,4.5c30.9,11.4,65.5,8.3,93.4-8.5c20.8-12.5,37-31.6,45.6-53.6c4.4-11.4,7.4-25.8,7.4-36.2v-3.6h-9.7h-9.7V131.5z"/>
    </g>
</svg>